# xmcd CD database file
#
# Track frame offsets:
#	151
#	12678
#	24027
#	38919
#	52840
#	63394
#	72191
#	82338
#	100120
#	114587
#	125138
#	135239
#	152067
#	166054
#	179312
#	190859
#	205116
#	216972
#	230570
#	245872
#	262575
#	277712
#	293293
#	303622
#	316002
#
# Disc length: 4320 seconds
#
# Revision: 2
# Processed by: cddbd v1.4PL0 Copyright (c) Steve Scherf et al.
# Submitted via: CDex 1.40Release
#
DISCID=5310de19
DTITLE=Artiste variés - 25 Super Country Hits Vol.2
DYEAR=1900
DGENRE=Country
TTITLE0=Au sud de la Louisiane
TTITLE1=Oublie le passé
TTITLE2=La sérénité
TTITLE3=Combien faut-il de temp
TTITLE4=Chérie toi et moi
TTITLE5=La chanson de la mendiante
TTITLE6=Mon coeur te dit je t'aime
TTITLE7=Le temp qu'il nous reste
TTITLE8=T'es pas le genre de gars
TTITLE9=La dame aux cheveux blancs
TTITLE10=La voix de ton coeur
TTITLE11=La théière
TTITLE12=Grand Père
TTITLE13=tu m'appelles
TTITLE14=Hommage Madelinot
TTITLE15=Caraquet
TTITLE16=Porte Mon Amour a Rose
TTITLE17=Ne lui envoie plus de rose
TTITLE18=La mort d'une mère
TTITLE19=Ma femme ma laissé
TTITLE20=Le roi de la route
TTITLE21=Tu t'en vas
TTITLE22=Mèle toi de tes affaires
TTITLE23=Les mains de mon père
TTITLE24=Un bouquet de fleur pour toi maman
EXTD=ID3G: 2
EXTT0=
EXTT1=
EXTT2=
EXTT3=
EXTT4=
EXTT5=
EXTT6=
EXTT7=
EXTT8=
EXTT9=
EXTT10=
EXTT11=
EXTT12=
EXTT13=
EXTT14=
EXTT15=
EXTT16=
EXTT17=
EXTT18=
EXTT19=
EXTT20=
EXTT21=
EXTT22=
EXTT23=
EXTT24=
PLAYORDER=
